<?xml version="1.0" encoding="UTF-8"?>
<!DOCTYPE svg PUBLIC "-//W3C//DTD SVG 1.1//EN" "http://www.w3.org/Graphics/SVG/1.1/DTD/svg11.dtd">
<!-- Creator: CorelDRAW X8 -->
<svg xmlns="http://www.w3.org/2000/svg" xml:space="preserve" width="420mm" height="297mm" version="1.1" style="shape-rendering:geometricPrecision; text-rendering:geometricPrecision; image-rendering:optimizeQuality; fill-rule:evenodd; clip-rule:evenodd"
viewBox="0 0 42000 29700"
 xmlns:xlink="http://www.w3.org/1999/xlink">
 <defs>
  <style type="text/css">
   <![CDATA[
    .fil1 {fill:#23B5CC;fill-rule:nonzero}
    .fil0 {fill:#E4115D;fill-rule:nonzero}
    .fil3 {fill:#FF0067;fill-rule:nonzero}
    .fil2 {fill:white;fill-rule:nonzero}
   ]]>
  </style>
     <clipPath id="id0" style="clip-rule:nonzero">
      <path d="M34836 29145l-27673 -125 125 -27674 27674 126 -126 27673z"/>
     </clipPath>
     <clipPath id="id1" style="clip-rule:nonzero">
      <path d="M34836 29145l-27673 -125 125 -27674 27674 126 -126 27673z"/>
     </clipPath>
     <clipPath id="id2" style="clip-rule:nonzero">
      <path d="M34836 29145l-27673 -125 125 -27674 27674 126 -126 27673z"/>
     </clipPath>
     <clipPath id="id3" style="clip-rule:nonzero">
      <path d="M34836 29145l-27673 -125 125 -27674 27674 126 -126 27673z"/>
     </clipPath>
     <clipPath id="id4" style="clip-rule:nonzero">
      <path d="M34836 29145l-27673 -125 125 -27674 27674 126 -126 27673z"/>
     </clipPath>
     <clipPath id="id5" style="clip-rule:nonzero">
      <path d="M34836 29145l-27673 -125 125 -27674 27674 126 -126 27673z"/>
     </clipPath>
     <clipPath id="id6" style="clip-rule:nonzero">
      <path d="M34836 29145l-27673 -125 125 -27674 27674 126 -126 27673z"/>
     </clipPath>
     <clipPath id="id7" style="clip-rule:nonzero">
      <path d="M34836 29145l-27673 -125 125 -27674 27674 126 -126 27673z"/>
     </clipPath>
     <clipPath id="id8" style="clip-rule:nonzero">
      <path d="M34836 29145l-27673 -125 125 -27674 27674 126 -126 27673z"/>
     </clipPath>
     <clipPath id="id9" style="clip-rule:nonzero">
      <path d="M34836 29145l-27673 -125 125 -27674 27674 126 -126 27673z"/>
     </clipPath>
     <clipPath id="id10" style="clip-rule:nonzero">
      <path d="M34836 29145l-27673 -125 125 -27674 27674 126 -126 27673z"/>
     </clipPath>
     <clipPath id="id11" style="clip-rule:nonzero">
      <path d="M34836 29145l-27673 -125 125 -27674 27674 126 -126 27673z"/>
     </clipPath>
     <clipPath id="id12" style="clip-rule:nonzero">
      <path d="M34836 29145l-27673 -125 125 -27674 27674 126 -126 27673z"/>
     </clipPath>
     <clipPath id="id13" style="clip-rule:nonzero">
      <path d="M34836 29145l-27673 -125 125 -27674 27674 126 -126 27673z"/>
     </clipPath>
     <clipPath id="id14" style="clip-rule:nonzero">
      <path d="M34836 29145l-27673 -125 125 -27674 27674 126 -126 27673z"/>
     </clipPath>
     <clipPath id="id15" style="clip-rule:nonzero">
      <path d="M34836 29145l-27673 -125 125 -27674 27674 126 -126 27673z"/>
     </clipPath>
     <clipPath id="id16" style="clip-rule:nonzero">
      <path d="M34836 29145l-27673 -125 125 -27674 27674 126 -126 27673z"/>
     </clipPath>
     <clipPath id="id17" style="clip-rule:nonzero">
      <path d="M34836 29145l-27673 -125 125 -27674 27674 126 -126 27673z"/>
     </clipPath>
     <clipPath id="id18" style="clip-rule:nonzero">
      <path d="M34836 29145l-27673 -125 125 -27674 27674 126 -126 27673z"/>
     </clipPath>
     <clipPath id="id19" style="clip-rule:nonzero">
      <path d="M34836 29145l-27673 -125 125 -27674 27674 126 -126 27673z"/>
     </clipPath>
     <clipPath id="id20" style="clip-rule:nonzero">
      <path d="M34836 29145l-27673 -125 125 -27674 27674 126 -126 27673z"/>
     </clipPath>
 </defs>
 <g id="Camada_x0020_1">
  <metadata id="CorelCorpID_0Corel-Layer"/>
  <g id="_1445947022160">
   <g>
    <g style="clip-path:url(#id0)">
    </g>
    <g style="clip-path:url(#id1)">
     <image x="-7683" y="-13886" width="58155" height="58155" xlink:href="Sem título-1_Images\Sem título-1_ImgID1.png"/>
    </g>
    <g style="clip-path:url(#id2)">
    </g>
   </g>
   <g>
    <g style="clip-path:url(#id3)">
    </g>
    <g style="clip-path:url(#id4)">
     <image x="-8123" y="-14497" width="58155" height="58155" xlink:href="Sem título-1_Images\Sem título-1_ImgID2.png"/>
    </g>
    <g style="clip-path:url(#id5)">
    </g>
   </g>
   <g>
    <g style="clip-path:url(#id6)">
    </g>
    <g style="clip-path:url(#id7)">
     <image x="-5398" y="-7787" width="53573" height="48449" xlink:href="Sem título-1_Images\Sem título-1_ImgID3.png"/>
    </g>
    <g style="clip-path:url(#id8)">
    </g>
   </g>
   <g>
    <path class="fil0" d="M20928 24118c-1289,-6 -2540,-264 -3716,-768 -1136,-487 -2154,-1180 -3028,-2061 -873,-882 -1558,-1907 -2034,-3047 -493,-1181 -740,-2433 -734,-3723 6,-1290 264,-2540 768,-3716 486,-1136 1180,-2155 2061,-3028 882,-874 1907,-1558 3047,-2034 1181,-493 2433,-740 3723,-735 1290,6 2540,265 3716,769 1136,486 2155,1180 3028,2061 874,881 1558,1906 2034,3046 493,1181 740,2434 734,3724 -5,1289 -264,2540 -768,3716 -486,1136 -1180,2154 -2061,3028 -881,873 -1906,1558 -3047,2034 -1180,493 -2433,740 -3723,734zm86 -18816l0 0c-1250,-5 -2464,234 -3608,712 -1105,461 -2098,1124 -2952,1971 -854,846 -1527,1834 -1998,2934 -488,1140 -738,2351 -744,3601 -6,1250 234,2464 711,3608 462,1105 1125,2098 1971,2952 847,854 1834,1526 2935,1998 1139,488 2351,738 3601,744 1250,6 2463,-234 3607,-712 1105,-461 2098,-1124 2953,-1970 854,-847 1526,-1834 1997,-2935 488,-1139 739,-2351 744,-3601 6,-1250 -233,-2463 -711,-3608 -461,-1104 -1125,-2098 -1971,-2952 -847,-854 -1834,-1526 -2934,-1997 -1140,-488 -2351,-739 -3601,-745zm-83 18323l0 0c-4997,-23 -9044,-4107 -9022,-9104 23,-4997 4107,-9044 9104,-9021 4997,23 9044,4106 9021,9103 -23,4997 -4106,9044 -9103,9022zm80 -17829l0 0c-4833,-22 -8784,3893 -8806,8726 -22,4834 3893,8785 8727,8807 4834,21 8784,-3893 8806,-8727 22,-4834 -3893,-8784 -8727,-8806z"/>
   </g>
   <g>
    <g>
     <g>
      <path class="fil1" d="M17858 20404l56 -125c60,44 150,76 236,76 98,0 138,-32 138,-76 1,-134 -415,-44 -414,-309 0,-122 99,-222 302,-221 90,0 182,22 248,64l-52 125c-66,-38 -134,-56 -198,-57 -98,0 -136,36 -136,81 0,132 416,43 414,305 0,120 -100,222 -304,221 -113,-1 -227,-35 -290,-84z"/>
      <polygon class="fil1" points="19224,19766 19220,20480 19055,20480 19056,20186 18732,20185 18730,20478 18565,20477 18568,19763 18734,19763 18732,20045 19057,20047 19058,19765 "/>
      <path class="fil1" d="M19347 20123c1,-212 167,-368 392,-367 225,1 391,158 390,371 -1,213 -168,369 -393,368 -225,-1 -390,-159 -389,-372zm614 3l0 0c1,-135 -95,-229 -222,-229 -128,-1 -224,91 -225,227 0,136 95,229 223,230 127,1 224,-92 224,-228z"/>
      <path class="fil1" d="M20874 20032c-1,160 -121,258 -312,257l-144 0 -1 197 -165 -1 3 -715 310 2c191,1 310,100 309,260zm-168 0l0 0c1,-79 -50,-125 -151,-126l-135 0 -1 248 135 0c101,1 152,-45 152,-122z"/>
      <polygon class="fil1" points="21947,19778 21944,20493 21808,20492 21454,20056 21452,20490 21289,20490 21292,19775 21429,19776 21782,20211 21784,19777 "/>
      <path class="fil1" d="M22070 20136c1,-213 168,-369 393,-368 225,1 391,158 390,371 -1,214 -169,369 -393,368 -226,-1 -391,-159 -390,-371zm615 3l0 0c1,-136 -95,-230 -222,-230 -128,-1 -224,92 -225,228 -1,135 95,229 222,229 128,1 224,-92 225,-227z"/>
      <polygon class="fil1" points="24036,19787 23799,20501 23621,20500 23466,20016 23301,20499 23125,20498 22893,19782 23065,19783 23224,20286 23394,19785 23548,19785 23709,20292 23877,19787 "/>
     </g>
    </g>
   </g>
   <g>
    <path class="fil2" d="M20929 24007c-1275,-6 -2511,-261 -3673,-759 -1123,-481 -2130,-1166 -2993,-2038 -863,-871 -1540,-1884 -2010,-3011 -488,-1167 -732,-2405 -726,-3680 6,-1274 261,-2510 759,-3673 481,-1122 1166,-2129 2037,-2992 872,-864 1885,-1540 3012,-2011 1167,-487 2405,-731 3679,-726 1275,6 2511,262 3674,760 1122,480 2129,1166 2992,2037 864,871 1540,1884 2011,3011 487,1167 731,2405 725,3680 -5,1275 -261,2511 -759,3673 -481,1123 -1166,2130 -2037,2993 -871,863 -1885,1540 -3011,2010 -1167,488 -2405,732 -3680,726zm85 -18816l0 0c-1265,-5 -2493,237 -3651,721 -1118,466 -2123,1138 -2987,1994 -865,857 -1545,1856 -2022,2969 -494,1154 -747,2380 -753,3645 -6,1265 236,2493 720,3651 467,1118 1138,2123 1995,2987 856,865 1855,1545 2969,2022 1153,494 2379,747 3644,753 1265,6 2493,-237 3651,-720 1118,-467 2123,-1138 2988,-1995 864,-856 1544,-1855 2021,-2969 494,-1153 748,-2379 753,-3644 6,-1265 -236,-2493 -720,-3651 -467,-1118 -1138,-2124 -1994,-2988 -857,-864 -1856,-1544 -2970,-2021 -1153,-494 -2379,-748 -3644,-754zm-83 18323l0 0c-4936,-23 -8933,-4057 -8911,-8992 23,-4936 4056,-8933 8992,-8911 4936,22 8933,4056 8911,8992 -22,4936 -4056,8933 -8992,8911zm81 -17829l0 0c-4895,-22 -8895,3942 -8918,8837 -22,4895 3942,8895 8837,8918 4895,22 8896,-3943 8918,-8838 22,-4895 -3942,-8895 -8837,-8917z"/>
   </g>
   <g>
    <g style="clip-path:url(#id9)">
    </g>
    <g style="clip-path:url(#id10)">
     <image x="-5808" y="-8454" width="53599" height="41974" xlink:href="Sem título-1_Images\Sem título-1_ImgID4.png"/>
    </g>
    <g style="clip-path:url(#id11)">
    </g>
   </g>
   <g>
    <path class="fil1" d="M16109 12460c153,-136 236,-320 237,-535 2,-497 -430,-796 -1156,-799l-1369 -6c-68,0 -124,55 -124,123l-12 2562c0,68 55,124 123,124l1442 7c1090,5 1210,-575 1211,-825 1,-274 -125,-503 -352,-651zm-858 1229l0 0 -1318 -6 10 -2316 1246 6c580,3 911,203 910,551 -1,195 -101,348 -289,441 -44,22 -71,67 -69,117 3,49 35,92 81,109 180,67 394,211 392,519 -2,508 -604,581 -963,579z"/>
    <path class="fil1" d="M15183 12682l-520 -2c-68,-1 -124,54 -124,122l-2 403c0,68 55,124 123,124l520 2c379,2 410,-246 410,-323 1,-76 -28,-324 -407,-326zm-2 403l0 0 -396 -2 0 -156 397 2c162,0 162,51 162,78 -1,28 -1,78 -163,78z"/>
    <path class="fil1" d="M14665 12355l402 2c366,2 406,-217 407,-312 0,-94 -38,-314 -404,-315l-403 -2c-68,0 -123,54 -124,123l-1 380c-1,68 54,124 123,124zm125 -380l0 0 279 1c158,1 158,45 158,68 0,24 0,67 -159,66l-279 -1 1 -134z"/>
    <path class="fil1" d="M18810 13035l-1033 -5 8 -1769c0,-68 -55,-123 -123,-124l-864 -4c-68,0 -123,55 -124,123l-11 2563c-1,68 54,123 123,124l2020 9c68,0 124,-55 124,-123l3 -670c0,-68 -55,-124 -123,-124zm-126 669l0 0 -1774 -8 11 -2315 617 3 -8 1769c-1,68 54,123 122,124l1034 4 -2 423z"/>
    <path class="fil1" d="M21292 11228c-20,-45 -64,-74 -113,-75l-849 -4c-49,0 -94,29 -113,74l-1132 2557c-17,38 -14,82 9,117 23,35 61,56 103,57l879 3c51,1 96,-30 115,-78l143 -367 805 4 140 368c18,48 63,79 114,79l894 5c41,0 80,-21 103,-56 23,-35 27,-79 10,-117l-1108 -2567zm187 2489l0 0 -140 -368c-18,-48 -64,-79 -115,-80l-973 -4c-51,0 -97,31 -116,78l-143 367 -605 -2 1022 -2311 688 3 1002 2320 -620 -3z"/>
    <path class="fil1" d="M20743 12001c-51,-1 -96,31 -115,78l-252 643c-15,38 -10,81 13,114 23,34 61,54 101,54l498 3c41,0 79,-20 102,-53 23,-34 29,-77 14,-115l-246 -645c-18,-48 -64,-79 -115,-79zm-72 644l0 0 70 -179 68 179 -138 0z"/>
    <path class="fil1" d="M23865 12053c180,1 327,82 462,255 21,27 52,44 86,47 34,3 68,-8 93,-30l548 -485c48,-43 55,-115 16,-167 -279,-368 -710,-564 -1244,-566 -899,-4 -1554,608 -1558,1456 -4,848 646,1466 1544,1470 535,2 967,-190 1250,-555 40,-51 33,-124 -15,-167l-543 -490c-25,-22 -59,-34 -93,-31 -34,3 -65,20 -86,46 -137,172 -285,252 -464,251 -295,-1 -476,-200 -475,-519 1,-319 185,-516 479,-515zm-6 1281l0 0c219,1 407,-80 572,-246l362 326c-234,246 -570,374 -979,372 -768,-3 -1302,-506 -1299,-1222 3,-716 542,-1214 1310,-1211 409,2 744,134 975,382l-364 322c-164,-167 -351,-250 -570,-251 -432,-2 -725,304 -727,761 -2,457 288,765 720,767z"/>
    <path class="fil1" d="M28240 13797l-1009 -1358 962 -1047c33,-37 41,-89 22,-133 -20,-45 -64,-74 -113,-74l-941 -5c-34,0 -68,15 -91,41l-630 689 2 -609c1,-69 -54,-124 -123,-124l-849 -4c-68,-1 -123,54 -124,123l-11 2562c-1,68 54,124 123,124l849 4c68,0 123,-55 124,-123l2 -586 63 -69 547 732c23,31 60,49 98,50l1000 4c46,0 89,-26 110,-68 21,-41 17,-91 -11,-129zm-1036 -54l0 0 -600 -803c-22,-29 -56,-47 -93,-49 -37,-2 -73,13 -97,40l-195 215c-21,23 -32,52 -32,83l-3 509 -602 -2 10 -2316 603 3 -4 806c0,51 31,97 79,116 47,18 101,6 136,-32l809 -886 607 3 -841 918c-40,43 -44,109 -8,156l922 1242 -691 -3z"/>
   </g>
   <g>
    <path class="fil2" d="M15950 12470c199,-123 308,-314 309,-546 2,-442 -398,-708 -1069,-711l-1370 -7c-20,0 -37,17 -37,37l-11 2563c0,20 16,37 37,37l1442 6c712,3 1122,-266 1124,-738 1,-289 -149,-514 -425,-641zm-699 1305l0 0 -1405 -6 11 -2488 1332 6c635,2 998,235 996,637 -1,227 -120,411 -337,518 -13,7 -21,20 -20,35 0,15 10,28 24,33 290,108 450,321 449,601 -2,431 -375,667 -1050,664z"/>
    <path class="fil2" d="M14665 12269l403 2c263,1 319,-122 319,-226 1,-104 -54,-228 -317,-229l-403 -2c-20,0 -37,17 -37,37l-2 381c0,20 16,37 37,37zm39 -381l0 0 365 2c220,1 245,89 244,154 0,66 -26,154 -245,153l-366 -2 2 -307z"/>
    <path class="fil2" d="M15182 12768l-519 -2c-21,0 -37,16 -38,37l-1 402c0,21 16,37 37,38l519 2c281,1 324,-148 324,-237 0,-89 -41,-238 -322,-240zm-1 403l0 0 -483 -2 1 -329 483 2c249,1 248,125 248,166 0,40 -1,164 -249,163z"/>
    <path class="fil2" d="M18810 13121l-1120 -5 9 -1855c0,-20 -17,-37 -37,-37l-864 -4c-21,0 -37,16 -37,37l-12 2562c0,21 17,37 37,37l2021 9c20,0 37,-16 37,-36l3 -670c0,-21 -17,-37 -37,-38zm-40 670l0 0 -1947 -9 12 -2488 789 4 -8 1855c0,21 16,37 37,37l1120 5 -3 596z"/>
    <path class="fil2" d="M20777 12111c-10,-29 -58,-29 -69,-1l-252 644c-4,11 -3,24 4,34 7,10 19,16 31,16l498 2c12,0 23,-6 30,-16 7,-10 9,-22 4,-34l-246 -645zm-232 619l0 0 197 -503 193 505 -390 -2z"/>
    <path class="fil2" d="M21213 11262c-6,-13 -20,-22 -34,-22l-849 -4c-15,0 -29,8 -34,22l-1132 2557c-5,12 -4,25 3,35 6,11 18,17 30,17l879 4c15,0 29,-9 35,-23l164 -423 923 5 161 423c6,15 19,24 35,24l893 4c12,0 24,-6 31,-16 7,-11 8,-24 3,-36l-1108 -2567zm206 2541l0 0 -160 -423c-6,-15 -20,-24 -35,-24l-974 -5c-15,0 -29,10 -34,24l-165 422 -797 -4 1099 -2483 801 4 1077 2493 -812 -4z"/>
    <path class="fil2" d="M23866 11966c205,1 379,96 529,289 7,8 16,13 26,14 10,1 20,-2 28,-9l548 -484c14,-13 16,-35 5,-51 -263,-346 -670,-530 -1177,-532 -848,-4 -1467,573 -1471,1370 -3,798 610,1380 1459,1384 507,2 915,-178 1181,-522 12,-15 10,-37 -5,-50l-543 -489c-7,-7 -17,-11 -28,-10 -10,1 -19,6 -25,14 -153,192 -327,285 -533,284 -342,-2 -562,-240 -560,-606 1,-367 223,-603 566,-602zm-640 601l0 0c-2,405 253,679 634,681 218,1 404,-91 565,-282l489 441c-252,307 -631,468 -1101,466 -806,-4 -1388,-555 -1385,-1309 4,-755 591,-1301 1397,-1297 469,2 848,167 1097,476l-493 436c-160,-192 -345,-286 -563,-287 -381,-1 -639,270 -640,675z"/>
    <path class="fil2" d="M28171 13849l-1051 -1416 1009 -1100c10,-11 12,-26 6,-40 -5,-13 -19,-22 -33,-22l-941 -4c-10,0 -20,4 -27,12l-782 855 4 -834c0,-20 -16,-37 -37,-37l-849 -4c-21,0 -37,17 -37,37l-12 2562c0,21 16,37 37,38l849 3c21,0 37,-16 37,-36l3 -620 155 -171 610 816c7,10 18,15 30,15l999 5c14,0 27,-8 33,-21 7,-12 5,-27 -3,-38zm-1010 -20l0 0 -626 -837c-7,-9 -17,-14 -28,-15 -11,-1 -22,4 -29,12l-195 215c-6,7 -10,16 -10,25l-3 596 -775 -3 12 -2489 775 4 -4 893c0,15 9,29 23,34 15,6 31,2 41,-9l835 -914 841 4 -974 1061c-12,13 -13,33 -2,47l1025 1380 -906 -4z"/>
   </g>
   <g>
    <g style="clip-path:url(#id12)">
    </g>
    <g style="clip-path:url(#id13)">
     <image x="-4834" y="-4464" width="51611" height="42850" xlink:href="Sem título-1_Images\Sem título-1_ImgID5.png"/>
    </g>
    <g style="clip-path:url(#id14)">
    </g>
   </g>
   <g>
    <g>
     <path class="fil3" d="M16569 15560c-1,48 -29,77 -77,76l-1186 -5 -5 962 899 4c48,0 77,29 77,77l-3 478c0,52 -29,76 -76,76l-900 -4 -7 1526c0,48 -29,76 -76,76l-498 -2c-52,-1 -76,-29 -76,-77l17 -3674c0,-47 24,-76 76,-76l1761 8c47,0 76,29 76,77l-2 478z"/>
    </g>
    <g>
     <path class="fil3" d="M18911 16872c-1,320 -122,530 -352,630l325 1254c14,58 -15,86 -68,86l-497 -2c-48,0 -72,-24 -81,-67l-315 -1217 -330 -1 -6 1205c0,48 -29,77 -77,76l-497 -2c-48,0 -76,-29 -76,-77l17 -3673c0,-48 29,-77 76,-76l1201 5c450,2 688,242 686,692l-6 1167zm-842 54l0 0c125,0 192,-67 192,-191l4 -899c1,-124 -66,-192 -190,-192l-473 -2 -6 1281 473 3z"/>
    </g>
    <g>
     <path class="fil3" d="M19972 15021c48,0 76,29 76,77l-17 3673c0,48 -29,77 -76,76l-498 -2c-52,0 -76,-29 -76,-77l17 -3673c0,-48 24,-77 76,-76l498 2z"/>
    </g>
    <g>
     <path class="fil3" d="M20526 15100c1,-48 25,-76 77,-76l1148 5c450,2 688,247 686,697l-11 2444c-2,449 -243,688 -692,685l-1148 -5c-53,0 -77,-24 -76,-77l16 -3673zm1077 3124l0 0c124,0 191,-62 192,-191l10 -2176c0,-129 -66,-197 -191,-197l-440 -2 -11 2564 440 2z"/>
    </g>
    <g>
     <path class="fil3" d="M24556 18868c-43,0 -67,-24 -76,-67l-131 -699 -852 -4 -132 698c-10,43 -34,67 -77,67l-511 -3c-53,0 -77,-29 -62,-81l810 -3675c10,-48 39,-67 82,-67l665 3c43,1 71,20 81,68l777 3681c10,53 -10,82 -67,82l-507 -3zm-623 -2992l0 0 -313 1668 612 3 -299 -1671z"/>
    </g>
    <g>
     <path class="fil3" d="M27194 15054c72,0 105,43 76,110l-884 2125 -7 1492c-1,62 -34,95 -96,95l-460 -2c-62,0 -95,-34 -95,-96l7 -1492 -866 -2133c-28,-67 6,-110 77,-110l479 3c57,0 90,24 109,77l530 1375 542 -1370c19,-53 53,-77 110,-77l478 3z"/>
    </g>
   </g>
   <g>
    <g style="clip-path:url(#id15)">
    </g>
    <g style="clip-path:url(#id16)">
     <image x="-4556" y="-4241" width="51000" height="42405" xlink:href="Sem título-1_Images\Sem título-1_ImgID6.png"/>
    </g>
    <g style="clip-path:url(#id17)">
    </g>
   </g>
   <g>
    <g>
     <path class="fil2" d="M16333 15250l-1396 -6 -15 3317c-1,27 21,49 49,49 27,0 49,-22 49,-49l7 -1584 992 4c27,0 49,-22 49,-49 0,-27 -22,-49 -49,-49l-991 -5 7 -1535 1298 6c27,0 49,-22 49,-49 1,-27 -21,-50 -49,-50z"/>
    </g>
    <g>
     <path class="fil2" d="M21728 15275l-934 -4 -15 3320 934 4c5,0 438,-5 440,-621l10 -2074c2,-616 -430,-625 -435,-625zm327 2698l0 0c-3,514 -326,523 -341,523l-836 -4 14 -3122 836 3c14,1 338,12 336,526l-9 2074z"/>
    </g>
    <g>
     <path class="fil2" d="M18231 15259l-969 -4c-27,-1 -49,21 -50,49l-14 3267c0,27 22,49 49,49 27,1 49,-21 49,-49l6 -1297 796 4 349 1311c6,22 26,37 47,37 5,0 9,0 13,-2 27,-7 42,-34 35,-60l-342 -1286 22 0c4,0 437,-5 440,-621l3 -773c3,-616 -430,-625 -434,-625zm332 1398l0 0c-2,514 -327,522 -341,522l-919 -4 8 -1822 920 5c13,0 338,7 336,526l-4 773z"/>
    </g>
    <g>
     <path class="fil2" d="M19722 15266c-27,0 -49,22 -49,49l-15 3267c0,27 22,49 49,50 27,0 49,-22 49,-50l15 -3267c0,-27 -22,-49 -49,-49z"/>
    </g>
    <g>
     <path class="fil2" d="M24136 15286l-430 -2 -714 3257c-6,26 11,53 38,59 27,6 53,-11 58,-38l151 -689 1340 7 144 689c5,24 26,40 49,40 3,0 6,-1 10,-1 27,-6 44,-32 38,-59l-684 -3263zm-875 2489l0 0 524 -2392 270 1 503 2397 -1297 -6z"/>
    </g>
    <g>
     <path class="fil2" d="M26942 15303c-25,-11 -54,-1 -65,24l-815 1795 -762 -1801c-11,-25 -40,-37 -65,-26 -25,10 -36,39 -26,64l802 1895 -6 1311c0,27 22,49 49,49 27,1 50,-21 50,-49l6 -1310 857 -1887c11,-25 0,-54 -25,-65z"/>
    </g>
   </g>
   <g>
    <g style="clip-path:url(#id18)">
    </g>
    <g style="clip-path:url(#id19)">
     <image x="-1631" y="255" width="45176" height="39722" xlink:href="Sem título-1_Images\Sem título-1_ImgID7.png"/>
    </g>
    <g style="clip-path:url(#id20)">
    </g>
   </g>
  </g>
 </g>
</svg>
